<?xml version="1.0" encoding="iso-8859-1"?>
<!-- Generator: Adobe Illustrator 19.0.0, SVG Export Plug-In . SVG Version: 6.00 Build 0)  -->
<svg version="1.1" id="Layer_1" xmlns="http://www.w3.org/2000/svg" xmlns:xlink="http://www.w3.org/1999/xlink" x="0px" y="0px"
	 viewBox="0 0 512 512" style="enable-background:new 0 0 512 512;" xml:space="preserve">
<circle style="fill:#D6D6D6;" cx="256" cy="41.248" r="41.248"/>
<g>
	<path style="fill:#333333;" d="M254.048,178.4l-39.856-86.416c0,0-41.808,0.56-41.808,39.024s0,47.392,0,47.392
		S254.32,178.4,254.048,178.4z"/>
	<path style="fill:#333333;" d="M257.952,178.4l39.856-86.416c0,0,41.808,0.56,41.808,39.024s0,47.392,0,47.392
		S257.68,178.4,257.952,178.4z"/>
</g>
<polygon style="fill:#0BA4E0;" points="256,91.984 227.296,91.984 256,155.536 284.704,91.984 "/>
<circle style="fill:#D6D6D6;" cx="428.368" cy="374.848" r="41.248"/>
<g>
	<path style="fill:#333333;" d="M426.416,512l-39.856-86.416c0,0-41.808,0.56-41.808,39.024s0,47.392,0,47.392
		S426.704,512,426.416,512z"/>
	<path style="fill:#333333;" d="M430.32,512l39.856-86.416c0,0,41.808,0.56,41.808,39.024s0,47.392,0,47.392S430.048,512,430.32,512
		z"/>
</g>
<polygon style="fill:#0BA4E0;" points="428.368,425.584 399.664,425.584 428.368,489.136 457.088,425.584 "/>
<circle style="fill:#D6D6D6;" cx="83.632" cy="374.848" r="41.248"/>
<g>
	<path style="fill:#333333;" d="M81.68,512l-39.856-86.416c0,0-41.808,0.56-41.808,39.024s0,47.392,0,47.392S81.952,512,81.68,512z"
		/>
	<path style="fill:#333333;" d="M85.584,512l39.856-86.416c0,0,41.808,0.56,41.808,39.024s0,47.392,0,47.392S85.296,512,85.584,512z
		"/>
</g>
<g>
	<polygon style="fill:#0BA4E0;" points="83.632,425.584 54.912,425.584 83.632,489.136 112.336,425.584 	"/>
	<polygon style="fill:#0BA4E0;" points="436.368,307.168 420.368,307.168 420.368,264 91.632,264 91.632,307.168 75.632,307.168 
		75.632,248 436.368,248 	"/>
	<rect x="249.952" y="204.496" style="fill:#0BA4E0;" width="16" height="58.848"/>
</g>
<g>
</g>
<g>
</g>
<g>
</g>
<g>
</g>
<g>
</g>
<g>
</g>
<g>
</g>
<g>
</g>
<g>
</g>
<g>
</g>
<g>
</g>
<g>
</g>
<g>
</g>
<g>
</g>
<g>
</g>
</svg>
